<?xml version="1.0" encoding="UTF-8"?>
<svg xmlns="http://www.w3.org/2000/svg" xmlns:xlink="http://www.w3.org/1999/xlink" viewBox="0 0 48 48" width="48px" height="48px">
<g id="surface53773724">
<path style=" stroke:none;fill-rule:nonzero;fill:rgb(40.000001%,40.000001%,40.000001%);fill-opacity:1;" d="M 40.902344 15.65625 C 40.707031 15.777344 36.023438 18.378906 36.023438 24.144531 C 36.242188 30.71875 41.933594 33.023438 42.03125 33.023438 C 41.933594 33.148438 41.171875 36.164062 38.917969 39.328125 C 37.125 42.054688 35.140625 44.800781 32.121094 44.800781 C 29.25 44.800781 28.222656 42.984375 24.910156 42.984375 C 21.351562 42.984375 20.34375 44.800781 17.621094 44.800781 C 14.605469 44.800781 12.46875 41.90625 10.582031 39.207031 C 8.128906 35.671875 6.042969 30.128906 5.972656 24.804688 C 5.921875 21.984375 6.460938 19.210938 7.835938 16.859375 C 9.773438 13.570312 13.230469 11.335938 17.007812 11.265625 C 19.902344 11.167969 22.480469 13.25 24.246094 13.25 C 25.9375 13.25 29.105469 11.265625 32.683594 11.265625 C 34.230469 11.265625 38.351562 11.730469 40.902344 15.65625 Z M 24 10.699219 C 23.488281 8.125 24.910156 5.546875 26.234375 3.90625 C 27.925781 1.917969 30.601562 0.570312 32.90625 0.570312 C 33.054688 3.144531 32.121094 5.671875 30.453125 7.511719 C 28.957031 9.5 26.378906 10.996094 24 10.699219 Z M 24 10.699219 "/>
</g>
</svg>
