<?xml version="1.0" encoding="UTF-8"?>
<svg xmlns="http://www.w3.org/2000/svg" xmlns:xlink="http://www.w3.org/1999/xlink" viewBox="0 0 48 48" width="48px" height="48px">
<g id="surface60350300">
<path style=" stroke:none;fill-rule:nonzero;fill:rgb(7.058824%,6.27451%,96.078432%);fill-opacity:1;" d="M 30.71875 10.558594 L 35.519531 10.558594 C 36.050781 10.558594 36.480469 10.128906 36.480469 9.601562 L 36.480469 3.132812 C 36.480469 2.628906 36.09375 2.210938 35.59375 2.175781 C 34.066406 2.066406 31.082031 1.921875 28.933594 1.921875 C 23.039062 1.921875 19.199219 5.453125 19.199219 11.875 L 19.199219 18.238281 L 12.480469 18.238281 C 11.949219 18.238281 11.519531 18.671875 11.519531 19.199219 L 11.519531 25.921875 C 11.519531 26.449219 11.949219 26.878906 12.480469 26.878906 L 19.199219 26.878906 L 19.199219 45.121094 C 19.199219 45.648438 19.628906 46.078125 20.160156 46.078125 L 26.878906 46.078125 C 27.410156 46.078125 27.839844 45.648438 27.839844 45.121094 L 27.839844 26.878906 L 34.773438 26.878906 C 35.261719 26.878906 35.671875 26.511719 35.726562 26.027344 L 36.472656 19.304688 C 36.539062 18.738281 36.09375 18.238281 35.519531 18.238281 L 27.839844 18.238281 L 27.839844 13.441406 C 27.839844 11.847656 29.128906 10.558594 30.71875 10.558594 Z M 30.71875 10.558594 "/>
</g>
</svg>
